<svg xmlns="http://www.w3.org/2000/svg" version="1.1" xmlns:xlink="http://www.w3.org/1999/xlink" xmlns:svgjs="http://svgjs.dev/svgjs" viewBox="0 0 800 800" width="800" height="800" opacity="0.8"><g stroke-width="2.75" stroke="#5a0ffc" fill="none"><rect width="400" height="400" x="0" y="0" opacity="0.15"></rect><circle r="9.078947368421051" cx="0" cy="0" fill="#5a0ffc" stroke="none"></circle><rect width="400" height="400" x="400" y="0" opacity="0.15"></rect><circle r="9.078947368421051" cx="400" cy="0" fill="#5a0ffc" stroke="none"></circle><rect width="400" height="400" x="800" y="0" opacity="0.15"></rect><circle r="9.078947368421051" cx="800" cy="0" fill="#5a0ffc" stroke="none"></circle><rect width="400" height="400" x="0" y="400" opacity="0.15"></rect><circle r="9.078947368421051" cx="0" cy="400" fill="#5a0ffc" stroke="none"></circle><rect width="400" height="400" x="400" y="400" opacity="0.15"></rect><circle r="9.078947368421051" cx="400" cy="400" fill="#5a0ffc" stroke="none"></circle><rect width="400" height="400" x="800" y="400" opacity="0.15"></rect><circle r="9.078947368421051" cx="800" cy="400" fill="#5a0ffc" stroke="none"></circle><rect width="400" height="400" x="0" y="800" opacity="0.15"></rect><circle r="9.078947368421051" cx="0" cy="800" fill="#5a0ffc" stroke="none"></circle><rect width="400" height="400" x="400" y="800" opacity="0.15"></rect><circle r="9.078947368421051" cx="400" cy="800" fill="#5a0ffc" stroke="none"></circle><rect width="400" height="400" x="800" y="800" opacity="0.15"></rect><circle r="9.078947368421051" cx="800" cy="800" fill="#5a0ffc" stroke="none"></circle></g></svg>