<svg xmlns="http://www.w3.org/2000/svg" version="1.1" xmlns:xlink="http://www.w3.org/1999/xlink" xmlns:svgjs="http://svgjs.dev/svgjs" viewBox="0 0 800 800"><defs><linearGradient x1="50%" y1="0%" x2="50%" y2="100%" id="ffflurry-grad" gradientTransform="rotate(270)"><stop stop-color="hsl(238, 82%, 13%)" stop-opacity="1" offset="0%"></stop><stop stop-color="hsl(162, 100%, 58%)" stop-opacity="1" offset="45%"></stop><stop stop-color="hsl(270, 73%, 53%)" stop-opacity="1" offset="100%"></stop></linearGradient></defs><rect width="100%" height="100%" fill="hsl(238, 82%, 13%)"></rect><g fill="url(#ffflurry-grad)"><rect width="378" height="5" x="163" y="687.5" rx="2.5" transform="rotate(151, 352, 690)" opacity="0.15"></rect><rect width="87" height="5" x="631.5" y="300.5" rx="2.5" transform="rotate(151, 675, 303)" opacity="0.34"></rect><rect width="50" height="5" x="369" y="594.5" rx="2.5" transform="rotate(151, 394, 597)" opacity="0.75"></rect><rect width="198" height="5" x="652" y="383.5" rx="2.5" transform="rotate(151, 751, 386)" opacity="0.08"></rect><rect width="512" height="5" x="-150" y="726.5" rx="2.5" transform="rotate(151, 106, 729)" opacity="0.61"></rect><rect width="417" height="5" x="83.5" y="761.5" rx="2.5" transform="rotate(151, 292, 764)" opacity="0.53"></rect><rect width="287" height="5" x="626.5" y="28.5" rx="2.5" transform="rotate(151, 770, 31)" opacity="0.86"></rect><rect width="448" height="5" x="390" y="194.5" rx="2.5" transform="rotate(151, 614, 197)" opacity="0.38"></rect><rect width="291" height="5" x="273.5" y="503.5" rx="2.5" transform="rotate(151, 419, 506)" opacity="0.08"></rect><rect width="304" height="5" x="452" y="72.5" rx="2.5" transform="rotate(151, 604, 75)" opacity="0.49"></rect><rect width="217" height="5" x="43.5" y="768.5" rx="2.5" transform="rotate(151, 152, 771)" opacity="0.41"></rect><rect width="254" height="5" x="617" y="320.5" rx="2.5" transform="rotate(151, 744, 323)" opacity="0.39"></rect><rect width="244" height="5" x="541" y="758.5" rx="2.5" transform="rotate(151, 663, 761)" opacity="0.09"></rect><rect width="310" height="5" x="351" y="633.5" rx="2.5" transform="rotate(151, 506, 636)" opacity="0.61"></rect><rect width="215" height="5" x="370.5" y="592.5" rx="2.5" transform="rotate(151, 478, 595)" opacity="0.09"></rect><rect width="153" height="5" x="162.5" y="250.5" rx="2.5" transform="rotate(151, 239, 253)" opacity="0.56"></rect><rect width="283" height="5" x="-50.5" y="495.5" rx="2.5" transform="rotate(151, 91, 498)" opacity="0.32"></rect><rect width="323" height="5" x="160.5" y="316.5" rx="2.5" transform="rotate(151, 322, 319)" opacity="0.53"></rect><rect width="332" height="5" x="-124" y="764.5" rx="2.5" transform="rotate(151, 42, 767)" opacity="0.73"></rect><rect width="191" height="5" x="655.5" y="755.5" rx="2.5" transform="rotate(151, 751, 758)" opacity="0.20"></rect><rect width="35" height="5" x="206.5" y="507.5" rx="2.5" transform="rotate(151, 224, 510)" opacity="0.22"></rect><rect width="408" height="5" x="382" y="747.5" rx="2.5" transform="rotate(151, 586, 750)" opacity="0.30"></rect><rect width="480" height="5" x="308" y="678.5" rx="2.5" transform="rotate(151, 548, 681)" opacity="0.96"></rect><rect width="551" height="5" x="91.5" y="40.5" rx="2.5" transform="rotate(151, 367, 43)" opacity="0.57"></rect><rect width="499" height="5" x="-148.5" y="398.5" rx="2.5" transform="rotate(151, 101, 401)" opacity="0.66"></rect><rect width="69" height="5" x="124.5" y="127.5" rx="2.5" transform="rotate(151, 159, 130)" opacity="0.61"></rect><rect width="397" height="5" x="288.5" y="343.5" rx="2.5" transform="rotate(151, 487, 346)" opacity="0.52"></rect><rect width="270" height="5" x="81" y="734.5" rx="2.5" transform="rotate(151, 216, 737)" opacity="0.61"></rect><rect width="214" height="5" x="559" y="152.5" rx="2.5" transform="rotate(151, 666, 155)" opacity="0.10"></rect><rect width="430" height="5" x="161" y="143.5" rx="2.5" transform="rotate(151, 376, 146)" opacity="0.08"></rect><rect width="94" height="5" x="542" y="139.5" rx="2.5" transform="rotate(151, 589, 142)" opacity="0.29"></rect><rect width="258" height="5" x="493" y="501.5" rx="2.5" transform="rotate(151, 622, 504)" opacity="0.31"></rect><rect width="240" height="5" x="108" y="779.5" rx="2.5" transform="rotate(151, 228, 782)" opacity="0.10"></rect><rect width="67" height="5" x="211.5" y="413.5" rx="2.5" transform="rotate(151, 245, 416)" opacity="0.07"></rect><rect width="80" height="5" x="721" y="464.5" rx="2.5" transform="rotate(151, 761, 467)" opacity="0.38"></rect><rect width="53" height="5" x="661.5" y="674.5" rx="2.5" transform="rotate(151, 688, 677)" opacity="0.67"></rect><rect width="720" height="5" x="275" y="386.5" rx="2.5" transform="rotate(151, 635, 389)" opacity="0.36"></rect><rect width="222" height="5" x="238" y="766.5" rx="2.5" transform="rotate(151, 349, 769)" opacity="0.79"></rect><rect width="244" height="5" x="574" y="31.5" rx="2.5" transform="rotate(151, 696, 34)" opacity="0.66"></rect><rect width="64" height="5" x="129" y="688.5" rx="2.5" transform="rotate(151, 161, 691)" opacity="0.47"></rect><rect width="575" height="5" x="-89.5" y="346.5" rx="2.5" transform="rotate(151, 198, 349)" opacity="0.21"></rect><rect width="133" height="5" x="432.5" y="502.5" rx="2.5" transform="rotate(151, 499, 505)" opacity="0.89"></rect><rect width="199" height="5" x="172.5" y="559.5" rx="2.5" transform="rotate(151, 272, 562)" opacity="0.21"></rect><rect width="496" height="5" x="514" y="570.5" rx="2.5" transform="rotate(151, 762, 573)" opacity="0.92"></rect><rect width="338" height="5" x="566" y="187.5" rx="2.5" transform="rotate(151, 735, 190)" opacity="0.55"></rect><rect width="302" height="5" x="618" y="257.5" rx="2.5" transform="rotate(151, 769, 260)" opacity="0.15"></rect><rect width="370" height="5" x="13" y="37.5" rx="2.5" transform="rotate(151, 198, 40)" opacity="0.71"></rect><rect width="150" height="5" x="704" y="173.5" rx="2.5" transform="rotate(151, 779, 176)" opacity="0.34"></rect><rect width="405" height="5" x="78.5" y="687.5" rx="2.5" transform="rotate(151, 281, 690)" opacity="0.50"></rect><rect width="353" height="5" x="590.5" y="111.5" rx="2.5" transform="rotate(151, 767, 114)" opacity="0.12"></rect><rect width="88" height="5" x="405" y="555.5" rx="2.5" transform="rotate(151, 449, 558)" opacity="0.63"></rect><rect width="254" height="5" x="22" y="543.5" rx="2.5" transform="rotate(151, 149, 546)" opacity="0.37"></rect><rect width="78" height="5" x="168" y="591.5" rx="2.5" transform="rotate(151, 207, 594)" opacity="0.46"></rect><rect width="84" height="5" x="123" y="457.5" rx="2.5" transform="rotate(151, 165, 460)" opacity="0.14"></rect><rect width="443" height="5" x="325.5" y="430.5" rx="2.5" transform="rotate(151, 547, 433)" opacity="0.39"></rect><rect width="408" height="5" x="423" y="630.5" rx="2.5" transform="rotate(151, 627, 633)" opacity="0.60"></rect><rect width="606" height="5" x="-240" y="44.5" rx="2.5" transform="rotate(151, 63, 47)" opacity="0.61"></rect><rect width="298" height="5" x="485" y="20.5" rx="2.5" transform="rotate(151, 634, 23)" opacity="0.97"></rect><rect width="296" height="5" x="80" y="661.5" rx="2.5" transform="rotate(151, 228, 664)" opacity="0.65"></rect><rect width="228" height="5" x="571" y="228.5" rx="2.5" transform="rotate(151, 685, 231)" opacity="0.54"></rect><rect width="231" height="5" x="-86.5" y="470.5" rx="2.5" transform="rotate(151, 29, 473)" opacity="0.16"></rect><rect width="470" height="5" x="107" y="389.5" rx="2.5" transform="rotate(151, 342, 392)" opacity="0.61"></rect><rect width="59" height="5" x="2.5" y="599.5" rx="2.5" transform="rotate(151, 32, 602)" opacity="0.23"></rect><rect width="355" height="5" x="129.5" y="198.5" rx="2.5" transform="rotate(151, 307, 201)" opacity="0.67"></rect><rect width="103" height="5" x="636.5" y="568.5" rx="2.5" transform="rotate(151, 688, 571)" opacity="0.56"></rect><rect width="83" height="5" x="0.5" y="245.5" rx="2.5" transform="rotate(151, 42, 248)" opacity="0.30"></rect><rect width="565" height="5" x="-18.5" y="110.5" rx="2.5" transform="rotate(151, 264, 113)" opacity="0.37"></rect><rect width="331" height="5" x="-122.5" y="685.5" rx="2.5" transform="rotate(151, 43, 688)" opacity="0.38"></rect><rect width="562" height="5" x="307" y="283.5" rx="2.5" transform="rotate(151, 588, 286)" opacity="0.76"></rect><rect width="346" height="5" x="170" y="523.5" rx="2.5" transform="rotate(151, 343, 526)" opacity="0.57"></rect><rect width="132" height="5" x="370" y="391.5" rx="2.5" transform="rotate(151, 436, 394)" opacity="0.98"></rect><rect width="384" height="5" x="573" y="666.5" rx="2.5" transform="rotate(151, 765, 669)" opacity="0.10"></rect><rect width="68" height="5" x="287" y="609.5" rx="2.5" transform="rotate(151, 321, 612)" opacity="0.91"></rect><rect width="50" height="5" x="381" y="754.5" rx="2.5" transform="rotate(151, 406, 757)" opacity="0.57"></rect><rect width="102" height="5" x="42" y="588.5" rx="2.5" transform="rotate(151, 93, 591)" opacity="0.15"></rect><rect width="624" height="5" x="201" y="39.5" rx="2.5" transform="rotate(151, 513, 42)" opacity="0.28"></rect><rect width="178" height="5" x="304" y="255.5" rx="2.5" transform="rotate(151, 393, 258)" opacity="0.59"></rect><rect width="447" height="5" x="468.5" y="476.5" rx="2.5" transform="rotate(151, 692, 479)" opacity="0.78"></rect><rect width="267" height="5" x="11.5" y="634.5" rx="2.5" transform="rotate(151, 145, 637)" opacity="0.98"></rect><rect width="502" height="5" x="-208" y="140.5" rx="2.5" transform="rotate(151, 43, 143)" opacity="0.27"></rect><rect width="80" height="5" x="418" y="118.5" rx="2.5" transform="rotate(151, 458, 121)" opacity="0.30"></rect><rect width="149" height="5" x="47.5" y="191.5" rx="2.5" transform="rotate(151, 122, 194)" opacity="0.41"></rect><rect width="82" height="5" x="529" y="562.5" rx="2.5" transform="rotate(151, 570, 565)" opacity="0.55"></rect><rect width="219" height="5" x="384.5" y="275.5" rx="2.5" transform="rotate(151, 494, 278)" opacity="0.20"></rect><rect width="433" height="5" x="268.5" y="752.5" rx="2.5" transform="rotate(151, 485, 755)" opacity="0.46"></rect><rect width="185" height="5" x="396.5" y="207.5" rx="2.5" transform="rotate(151, 489, 210)" opacity="0.67"></rect><rect width="183" height="5" x="444.5" y="149.5" rx="2.5" transform="rotate(151, 536, 152)" opacity="0.07"></rect><rect width="192" height="5" x="54" y="262.5" rx="2.5" transform="rotate(151, 150, 265)" opacity="0.27"></rect><rect width="255" height="5" x="176.5" y="463.5" rx="2.5" transform="rotate(151, 304, 466)" opacity="0.77"></rect><rect width="86" height="5" x="692" y="66.5" rx="2.5" transform="rotate(151, 735, 69)" opacity="0.36"></rect><rect width="149" height="5" x="617.5" y="105.5" rx="2.5" transform="rotate(151, 692, 108)" opacity="0.68"></rect><rect width="500" height="5" x="-192" y="334.5" rx="2.5" transform="rotate(151, 58, 337)" opacity="0.53"></rect><rect width="507" height="5" x="177.5" y="670.5" rx="2.5" transform="rotate(151, 431, 673)" opacity="0.10"></rect><rect width="218" height="5" x="288" y="448.5" rx="2.5" transform="rotate(151, 397, 451)" opacity="0.83"></rect></g></svg>